<mxfile host="app.diagrams.net" modified="2020-10-11T09:18:56.304Z" agent="5.0 (Macintosh; Intel Mac OS X 10_14_6) AppleWebKit/537.36 (KHTML, like Gecko) Chrome/86.0.4240.75 Safari/537.36" etag="Lxh-TD9EiQaOmcm_tnl8" version="13.7.9" type="github">
  <diagram name="Page-1" id="74e2e168-ea6b-b213-b513-2b3c1d86103e">
    <mxGraphModel dx="1123" dy="603" grid="1" gridSize="10" guides="1" tooltips="1" connect="1" arrows="1" fold="1" page="1" pageScale="1" pageWidth="1100" pageHeight="850" background="#ffffff" math="0" shadow="0">
      <root>
        <mxCell id="0" />
        <mxCell id="1" parent="0" />
        <mxCell id="77e6c97f196da883-1" value="Auto-generated Conference Banner" style="swimlane;html=1;childLayout=stackLayout;startSize=20;rounded=0;shadow=0;labelBackgroundColor=none;strokeWidth=1;fontFamily=Verdana;fontSize=8;align=center;" parent="1" vertex="1">
          <mxGeometry x="70" y="40" width="720" height="690" as="geometry" />
        </mxCell>
        <mxCell id="77e6c97f196da883-2" value="Controller" style="swimlane;html=1;startSize=20;" parent="77e6c97f196da883-1" vertex="1">
          <mxGeometry y="20" width="720" height="670" as="geometry" />
        </mxCell>
        <mxCell id="20CMu36D7WqyFzSG5CkX-1" value="Start" style="ellipse;whiteSpace=wrap;html=1;" vertex="1" parent="77e6c97f196da883-2">
          <mxGeometry x="40" y="40" width="120" height="40" as="geometry" />
        </mxCell>
        <mxCell id="20CMu36D7WqyFzSG5CkX-3" value="" style="edgeStyle=orthogonalEdgeStyle;rounded=0;orthogonalLoop=1;jettySize=auto;html=1;" edge="1" parent="77e6c97f196da883-2" source="20CMu36D7WqyFzSG5CkX-1" target="20CMu36D7WqyFzSG5CkX-2">
          <mxGeometry relative="1" as="geometry" />
        </mxCell>
        <mxCell id="20CMu36D7WqyFzSG5CkX-5" value="" style="edgeStyle=orthogonalEdgeStyle;rounded=0;orthogonalLoop=1;jettySize=auto;html=1;" edge="1" parent="77e6c97f196da883-2" source="20CMu36D7WqyFzSG5CkX-2" target="20CMu36D7WqyFzSG5CkX-4">
          <mxGeometry relative="1" as="geometry" />
        </mxCell>
        <mxCell id="20CMu36D7WqyFzSG5CkX-7" value="" style="edgeStyle=orthogonalEdgeStyle;rounded=0;orthogonalLoop=1;jettySize=auto;html=1;" edge="1" parent="77e6c97f196da883-2" source="20CMu36D7WqyFzSG5CkX-4" target="20CMu36D7WqyFzSG5CkX-6">
          <mxGeometry relative="1" as="geometry" />
        </mxCell>
        <mxCell id="20CMu36D7WqyFzSG5CkX-9" value="" style="edgeStyle=orthogonalEdgeStyle;rounded=1;orthogonalLoop=1;jettySize=auto;html=1;" edge="1" parent="77e6c97f196da883-2" source="20CMu36D7WqyFzSG5CkX-4" target="20CMu36D7WqyFzSG5CkX-8">
          <mxGeometry relative="1" as="geometry" />
        </mxCell>
        <mxCell id="20CMu36D7WqyFzSG5CkX-17" value="write into template" style="whiteSpace=wrap;html=1;" vertex="1" parent="77e6c97f196da883-2">
          <mxGeometry x="30" y="210" width="120" height="60" as="geometry" />
        </mxCell>
        <mxCell id="20CMu36D7WqyFzSG5CkX-15" value="set position x/y, margin, align, font size" style="whiteSpace=wrap;html=1;" vertex="1" parent="77e6c97f196da883-2">
          <mxGeometry x="120" y="130" width="120" height="60" as="geometry" />
        </mxCell>
        <mxCell id="20CMu36D7WqyFzSG5CkX-2" value="Conference data&lt;br&gt;(all conference details)" style="shape=parallelogram;perimeter=parallelogramPerimeter;whiteSpace=wrap;html=1;fixedSize=1;" vertex="1" parent="77e6c97f196da883-2">
          <mxGeometry x="190" y="30" width="120" height="60" as="geometry" />
        </mxCell>
        <mxCell id="20CMu36D7WqyFzSG5CkX-29" value="make success status,&lt;br&gt;serve to views" style="whiteSpace=wrap;html=1;" vertex="1" parent="77e6c97f196da883-2">
          <mxGeometry x="280" y="520" width="120" height="60" as="geometry" />
        </mxCell>
        <mxCell id="20CMu36D7WqyFzSG5CkX-32" value="finish" style="ellipse;whiteSpace=wrap;html=1;" vertex="1" parent="77e6c97f196da883-2">
          <mxGeometry x="280" y="610" width="120" height="40" as="geometry" />
        </mxCell>
        <mxCell id="20CMu36D7WqyFzSG5CkX-19" value="set filename" style="whiteSpace=wrap;html=1;" vertex="1" parent="77e6c97f196da883-2">
          <mxGeometry x="280" y="250" width="120" height="30" as="geometry" />
        </mxCell>
        <mxCell id="20CMu36D7WqyFzSG5CkX-4" value="set text container width and height setting (default: 3000 x 300)" style="whiteSpace=wrap;html=1;" vertex="1" parent="77e6c97f196da883-2">
          <mxGeometry x="330" y="30" width="120" height="60" as="geometry" />
        </mxCell>
        <mxCell id="20CMu36D7WqyFzSG5CkX-13" value="conference detail iteration finish?" style="rhombus;whiteSpace=wrap;html=1;" vertex="1" parent="77e6c97f196da883-2">
          <mxGeometry x="290" y="120" width="100" height="80" as="geometry" />
        </mxCell>
        <mxCell id="20CMu36D7WqyFzSG5CkX-23" value="overwrite previous banner, update to Database" style="whiteSpace=wrap;html=1;" vertex="1" parent="77e6c97f196da883-2">
          <mxGeometry x="280" y="430" width="120" height="60" as="geometry" />
        </mxCell>
        <mxCell id="20CMu36D7WqyFzSG5CkX-21" value="previous banner exist?" style="rhombus;whiteSpace=wrap;html=1;" vertex="1" parent="77e6c97f196da883-2">
          <mxGeometry x="290" y="310" width="100" height="80" as="geometry" />
        </mxCell>
        <mxCell id="20CMu36D7WqyFzSG5CkX-12" value="" style="edgeStyle=orthogonalEdgeStyle;rounded=0;orthogonalLoop=1;jettySize=auto;html=1;" edge="1" parent="77e6c97f196da883-2" source="20CMu36D7WqyFzSG5CkX-8" target="20CMu36D7WqyFzSG5CkX-11">
          <mxGeometry relative="1" as="geometry" />
        </mxCell>
        <mxCell id="20CMu36D7WqyFzSG5CkX-14" value="" style="edgeStyle=orthogonalEdgeStyle;rounded=0;orthogonalLoop=1;jettySize=auto;html=1;" edge="1" parent="77e6c97f196da883-2" source="20CMu36D7WqyFzSG5CkX-11" target="20CMu36D7WqyFzSG5CkX-13">
          <mxGeometry relative="1" as="geometry" />
        </mxCell>
        <mxCell id="20CMu36D7WqyFzSG5CkX-16" value="No" style="edgeStyle=orthogonalEdgeStyle;rounded=0;orthogonalLoop=1;jettySize=auto;html=1;" edge="1" parent="77e6c97f196da883-2" source="20CMu36D7WqyFzSG5CkX-13" target="20CMu36D7WqyFzSG5CkX-15">
          <mxGeometry relative="1" as="geometry" />
        </mxCell>
        <mxCell id="20CMu36D7WqyFzSG5CkX-18" value="" style="edgeStyle=orthogonalEdgeStyle;rounded=1;orthogonalLoop=1;jettySize=auto;html=1;exitX=0;exitY=0.5;exitDx=0;exitDy=0;" edge="1" parent="77e6c97f196da883-2" source="20CMu36D7WqyFzSG5CkX-15" target="20CMu36D7WqyFzSG5CkX-17">
          <mxGeometry relative="1" as="geometry" />
        </mxCell>
        <mxCell id="20CMu36D7WqyFzSG5CkX-20" value="No" style="edgeStyle=orthogonalEdgeStyle;rounded=0;orthogonalLoop=1;jettySize=auto;html=1;" edge="1" parent="77e6c97f196da883-2" source="20CMu36D7WqyFzSG5CkX-13" target="20CMu36D7WqyFzSG5CkX-19">
          <mxGeometry relative="1" as="geometry" />
        </mxCell>
        <mxCell id="20CMu36D7WqyFzSG5CkX-22" value="" style="edgeStyle=orthogonalEdgeStyle;rounded=0;orthogonalLoop=1;jettySize=auto;html=1;" edge="1" parent="77e6c97f196da883-2" source="20CMu36D7WqyFzSG5CkX-19" target="20CMu36D7WqyFzSG5CkX-21">
          <mxGeometry relative="1" as="geometry" />
        </mxCell>
        <mxCell id="20CMu36D7WqyFzSG5CkX-24" value="Yes" style="edgeStyle=orthogonalEdgeStyle;rounded=0;orthogonalLoop=1;jettySize=auto;html=1;" edge="1" parent="77e6c97f196da883-2" source="20CMu36D7WqyFzSG5CkX-21" target="20CMu36D7WqyFzSG5CkX-23">
          <mxGeometry relative="1" as="geometry" />
        </mxCell>
        <mxCell id="20CMu36D7WqyFzSG5CkX-8" value="load template &lt;br&gt;banner image &lt;br&gt;(png)" style="shape=parallelogram;perimeter=parallelogramPerimeter;whiteSpace=wrap;html=1;fixedSize=1;" vertex="1" parent="77e6c97f196da883-2">
          <mxGeometry x="580" y="130" width="120" height="60" as="geometry" />
        </mxCell>
        <mxCell id="20CMu36D7WqyFzSG5CkX-11" value="Set Font Family, Initial Font Size" style="whiteSpace=wrap;html=1;" vertex="1" parent="77e6c97f196da883-2">
          <mxGeometry x="430" y="130" width="120" height="60" as="geometry" />
        </mxCell>
        <mxCell id="20CMu36D7WqyFzSG5CkX-6" value="set background color &amp;amp; text color" style="whiteSpace=wrap;html=1;" vertex="1" parent="77e6c97f196da883-2">
          <mxGeometry x="490" y="30" width="120" height="60" as="geometry" />
        </mxCell>
        <mxCell id="20CMu36D7WqyFzSG5CkX-30" value="" style="edgeStyle=orthogonalEdgeStyle;rounded=0;orthogonalLoop=1;jettySize=auto;html=1;" edge="1" parent="77e6c97f196da883-2" source="20CMu36D7WqyFzSG5CkX-23" target="20CMu36D7WqyFzSG5CkX-29">
          <mxGeometry relative="1" as="geometry" />
        </mxCell>
        <mxCell id="20CMu36D7WqyFzSG5CkX-33" value="" style="edgeStyle=orthogonalEdgeStyle;rounded=0;orthogonalLoop=1;jettySize=auto;html=1;" edge="1" parent="77e6c97f196da883-2" source="20CMu36D7WqyFzSG5CkX-29" target="20CMu36D7WqyFzSG5CkX-32">
          <mxGeometry relative="1" as="geometry" />
        </mxCell>
        <mxCell id="20CMu36D7WqyFzSG5CkX-31" style="edgeStyle=orthogonalEdgeStyle;rounded=1;orthogonalLoop=1;jettySize=auto;html=1;entryX=1;entryY=0.5;entryDx=0;entryDy=0;" edge="1" parent="1" source="20CMu36D7WqyFzSG5CkX-25" target="20CMu36D7WqyFzSG5CkX-29">
          <mxGeometry relative="1" as="geometry">
            <Array as="points">
              <mxPoint x="590" y="610" />
            </Array>
          </mxGeometry>
        </mxCell>
        <mxCell id="20CMu36D7WqyFzSG5CkX-25" value="save banner on filepath, insert to Database" style="whiteSpace=wrap;html=1;" vertex="1" parent="1">
          <mxGeometry x="530" y="380" width="120" height="60" as="geometry" />
        </mxCell>
        <mxCell id="20CMu36D7WqyFzSG5CkX-26" value="" style="edgeStyle=orthogonalEdgeStyle;rounded=0;orthogonalLoop=1;jettySize=auto;html=1;" edge="1" parent="1" source="20CMu36D7WqyFzSG5CkX-21" target="20CMu36D7WqyFzSG5CkX-25">
          <mxGeometry relative="1" as="geometry" />
        </mxCell>
        <mxCell id="20CMu36D7WqyFzSG5CkX-27" style="edgeStyle=orthogonalEdgeStyle;rounded=1;orthogonalLoop=1;jettySize=auto;html=1;" edge="1" parent="1" source="20CMu36D7WqyFzSG5CkX-17">
          <mxGeometry relative="1" as="geometry">
            <mxPoint x="480" y="219.9999999999999" as="targetPoint" />
            <Array as="points">
              <mxPoint x="80" y="310" />
              <mxPoint x="80" y="170" />
              <mxPoint x="480" y="170" />
            </Array>
          </mxGeometry>
        </mxCell>
      </root>
    </mxGraphModel>
  </diagram>
</mxfile>
